<?xml version="1.0" encoding="utf-8"?>
<!-- Generator: Adobe Illustrator 23.0.3, SVG Export Plug-In . SVG Version: 6.00 Build 0)  -->
<svg version="1.1" id="Layer_1" xmlns="http://www.w3.org/2000/svg" xmlns:xlink="http://www.w3.org/1999/xlink" x="0px" y="0px"
	 viewBox="0 0 841.9 595.3" style="enable-background:new 0 0 841.9 595.3;" xml:space="preserve">
<style type="text/css">
	.st0{fill:#61DAFB;}
	.st1{fill:#61DAFB;stroke:#61DAFB;stroke-width:2.8346;stroke-miterlimit:10;}
</style>
<g>
	<path class="st0" d="M666.3,296.5c0-32.5-40.7-63.3-103.1-82.4c14.4-63.6,8-114.2-20.2-130.4c-6.5-3.8-14.1-5.6-22.4-5.6v22.3
		c4.6,0,8.3,0.9,11.4,2.6c13.6,7.8,19.5,37.5,14.9,75.7c-1.1,9.4-2.9,19.3-5.1,29.4c-19.6-4.8-41-8.5-63.5-10.9
		c-13.5-18.5-27.5-35.3-41.6-50c32.6-30.3,63.2-46.9,84-46.9V78c-27.5,0-63.5,19.6-99.9,53.6c-36.4-33.8-72.4-53.2-99.9-53.2v22.3
		c20.7,0,51.4,16.5,84,46.6c-14,14.7-28,31.4-41.3,49.9c-22.6,2.4-44,6.1-63.6,11c-2.3-10-4-19.7-5.2-29
		c-4.7-38.2,1.1-67.9,14.6-75.8c3-1.8,6.9-2.6,11.5-2.6V78.5c-8.4,0-16,1.8-22.6,5.6c-28.1,16.2-34.4,66.7-19.9,130.1
		c-62.2,19.2-102.7,49.9-102.7,82.3c0,32.5,40.7,63.3,103.1,82.4c-14.4,63.6-8,114.2,20.2,130.4c6.5,3.8,14.1,5.6,22.5,5.6
		c27.5,0,63.5-19.6,99.9-53.6c36.4,33.8,72.4,53.2,99.9,53.2c8.4,0,16-1.8,22.6-5.6c28.1-16.2,34.4-66.7,19.9-130.1
		C625.8,359.7,666.3,328.9,666.3,296.5L666.3,296.5z M536.1,229.8c-3.7,12.9-8.3,26.2-13.5,39.5c-4.1-8-8.4-16-13.1-24
		c-4.6-8-9.5-15.8-14.4-23.4C509.3,224,523,226.6,536.1,229.8L536.1,229.8z M490.3,336.3c-7.8,13.5-15.8,26.3-24.1,38.2
		c-14.9,1.3-30,2-45.2,2c-15.1,0-30.2-0.7-45-1.9c-8.3-11.9-16.4-24.6-24.2-38c-7.6-13.1-14.5-26.4-20.8-39.8
		c6.2-13.4,13.2-26.8,20.7-39.9c7.8-13.5,15.8-26.3,24.1-38.2c14.9-1.3,30-2,45.2-2c15.1,0,30.2,0.7,45,1.9
		c8.3,11.9,16.4,24.6,24.2,38c7.6,13.1,14.5,26.4,20.8,39.8C504.7,309.8,497.8,323.2,490.3,336.3L490.3,336.3z M522.6,323.3
		c5.4,13.4,10,26.8,13.8,39.8c-13.1,3.2-26.9,5.9-41.2,8c4.9-7.7,9.8-15.6,14.4-23.7C514.2,339.4,518.5,331.3,522.6,323.3
		L522.6,323.3z M421.2,430c-9.3-9.6-18.6-20.3-27.8-32c9,0.4,18.2,0.7,27.5,0.7c9.4,0,18.7-0.2,27.8-0.7
		C439.7,409.7,430.4,420.4,421.2,430z M346.8,371.1c-14.2-2.1-27.9-4.7-41-7.9c3.7-12.9,8.3-26.2,13.5-39.5c4.1,8,8.4,16,13.1,24
		S341.9,363.5,346.8,371.1z M420.7,163c9.3,9.6,18.6,20.3,27.8,32c-9-0.4-18.2-0.7-27.5-0.7c-9.4,0-18.7,0.2-27.8,0.7
		C402.2,183.3,411.5,172.6,420.7,163z M346.7,221.9c-4.9,7.7-9.8,15.6-14.4,23.7c-4.6,8-8.9,16-13,24c-5.4-13.4-10-26.8-13.8-39.8
		C318.6,226.7,332.4,224,346.7,221.9L346.7,221.9z M256.2,347.1c-35.4-15.1-58.3-34.9-58.3-50.6s22.9-35.6,58.3-50.6
		c8.6-3.7,18-7,27.7-10.1c5.7,19.6,13.2,40,22.5,60.9c-9.2,20.8-16.6,41.1-22.2,60.6C274.3,354.2,264.9,350.8,256.2,347.1
		L256.2,347.1z M310,490c-13.6-7.8-19.5-37.5-14.9-75.7c1.1-9.4,2.9-19.3,5.1-29.4c19.6,4.8,41,8.5,63.5,10.9
		c13.5,18.5,27.5,35.3,41.6,50c-32.6,30.3-63.2,46.9-84,46.9C316.8,492.6,313,491.7,310,490L310,490z M547.2,413.8
		c4.7,38.2-1.1,67.9-14.6,75.8c-3,1.8-6.9,2.6-11.5,2.6c-20.7,0-51.4-16.5-84-46.6c14-14.7,28-31.4,41.3-49.9
		c22.6-2.4,44-6.1,63.6-11C544.3,394.8,546.1,404.5,547.2,413.8z M585.7,347.1c-8.6,3.7-18,7-27.7,10.1c-5.7-19.6-13.2-40-22.5-60.9
		c9.2-20.8,16.6-41.1,22.2-60.6c9.9,3.1,19.3,6.5,28.1,10.2c35.4,15.1,58.3,34.9,58.3,50.6C644,312.2,621.1,332.1,585.7,347.1
		L585.7,347.1z"/>
	<path class="st0" d="M520.5,78.1"/>
	<g>
		<path class="st0" d="M454.5,338c-4.9,2.4-13.2,4.9-22.3,4.9c-14,0-26.9-5.1-34.9-14.6c-3.9-4.3-6.7-9.8-8-16.6H380v-9.1h7.9
			c0-0.6,0-1.4,0-2.2c0-1.3,0.1-2.6,0.1-3.8h-8v-9.1h9.6c1.9-6.9,5.3-12.8,9.9-17.5c8.1-8.2,19.6-13,33-13c8.7,0,16.3,1.8,21.4,3.8
			l-4,14.6c-3.7-1.4-9.6-3.1-15.9-3.1c-6.9,0-13.2,2-17.6,6.9c-2,2-3.6,5-4.6,8.3h35.6v9.1h-37.7c-0.1,1.3-0.1,2.7-0.1,4
			c0,0.8,0,1.3,0,2h37.9v9.1h-35.9c1,3.8,2.6,6.8,4.7,9c4.6,4.6,11.3,6.5,18.4,6.5c6.6,0,13.3-1.9,16.3-3.3L454.5,338z"/>
	</g>
	<g>
		<g>
			<path class="st0" d="M562.9,292.5h12.9v-14h5.7v14h5.2v-14h5.7v10.7l22.9-14.7v14.7l-12.9,6.3c-3.2,1.6-6,2.6-8.8,3.8v0.2
				c2.7,1.2,5.7,2.3,8.9,3.9l12.8,6.4v14.4l-22.9-15.4v10.7h-5.7v-14.2h-5.2v14.2h-5.7v-14.2h-12.9V292.5z"/>
		</g>
	</g>
	<g>
		<path class="st0" d="M332.9,186v-7.7c-6-0.2-11.9-1.7-15.3-3.5l2.7-9.4c3.8,1.9,9.1,3.6,15,3.6c5.1,0,8.7-1.8,8.7-5
			c0-3.1-2.9-5-9.6-7c-9.7-2.9-16.2-6.9-16.2-14.8c0-7.1,5.6-12.7,15.3-14.4v-7.7h8.8v7.1c6,0.2,10.1,1.4,13.1,2.7l-2.6,9.1
			c-2.3-0.9-6.5-2.7-13-2.7c-5.9,0-7.8,2.3-7.8,4.5c0,2.7,3.2,4.4,10.8,6.9c10.7,3.4,15.1,7.8,15.1,15.1c0,7.2-5.7,13.3-16.1,14.9
			v8.2H332.9z"/>
	</g>
	<g>
		<path class="st1" d="M252.6,279c1.1-4,2.9-7,5.4-9.1c2.5-2,5.3-3,8.6-3s6.2,0.9,8.9,2.7c2.7,1.8,4.7,4.4,6,7.7
			c1.3,3.3,1.9,7.9,1.9,13.7v0.3h8.3v4.7h-8.3v19.8h-57.8v-19.8h-5.4v-4.7h5.4c0-7.6,1.5-13,4.6-16.3s6.4-4.9,10.2-4.9
			c2.5,0,4.9,0.7,7,2.2C249.5,273.7,251.2,276,252.6,279z M249.8,291.3c0-4.6-0.7-7.8-2.1-9.8c-1.4-2-3.5-3-6.3-3c-3,0-5.2,1-6.6,3
			c-1.4,2-2.2,5.3-2.3,9.8H249.8z M249.8,295.9h-17.3v11.2h17.3V295.9z M276.5,291.3v-0.2c0-5.8-0.9-9.8-2.6-12
			c-1.8-2.2-4.2-3.3-7.3-3.3c-3.2,0-5.7,1.2-7.4,3.6c-1.7,2.4-2.5,6.4-2.5,11.9H276.5z M276.5,295.9h-19.9v11.2h19.9V295.9z"/>
	</g>
	<g>
		<path class="st0" d="M346.2,474.6l-7.2-7.8l13.7-12.6l-0.1-0.2c-1.9,0.3-3.8,0.5-5.6,0.8l-17.5,1.6l-8.9-9.6l23.7-0.7l6.6-28.5
			l8.4,9.1l-5.5,20.8l6,0l10.1-9.3l7.2,7.8L346.2,474.6z"/>
		<path class="st0" d="M316.5,430.9l-2.3,11.5l-4.7-5.1l1.6-6.3l-0.1-0.1l-6.4,1.1l-4.7-5.1l11.7-1.3L316.5,430.9z M331.2,397.3
			c1.8,0.9,4.8,3,7.5,6c7.5,8.1,7.8,17.4,0.8,23.9c-6.6,6.1-16.6,6-25.2-3.4c-1.9-2.1-3.7-4.6-4.6-6.8l6.3-3.6
			c0.5,1.3,1.4,2.9,3.3,5c3.8,4.1,8.9,4.4,12.5,0.9c4.1-3.8,3.4-8.9-0.1-12.7c-1.7-1.8-3.3-3-4.9-3.8L331.2,397.3z"/>
	</g>
	<g>
		<path class="st0" d="M514.6,407.9l1.2,20.8c0.1,3.7,0.1,6.4,0,9.9l0.1,0.1l13.7-13.7l6.8,6.8l-25.5,25.5l-5.2-5.2l-1.2-19.9
			c-0.1-3.5-0.3-6.9,0-10.2l-0.1-0.1l-15,15l-6.9-6.9l27.1-27.1L514.6,407.9z"/>
		<path class="st0" d="M476.8,435.8l13.1,13.1l1.2-7.1l6.2,6.2l-1.2,7.1l21.2,21.2l-9.8,9.8l-14.8-14.8l-1.3,7.8l-6.2-6.2l1.3-7.8
			L467,445.5L476.8,435.8z"/>
	</g>
	<g>
		<path class="st0" d="M474.6,159.4l3.1-5.7c5,0.7,11.9-0.8,14.6-5.6c0.5-1,0.9-1.9,1.3-3l-7.8-4.2l4-7.3l6.3,3.5
			c0.6-2,1.5-4.2,2.5-6.1c4.9-8.9,15.4-10.8,26-5c4.4,2.4,7.1,5,8.4,6.8l-6.4,7.1c-1.1-1.6-3-3.3-6-4.9c-5.6-3.1-9.1-0.8-11,2.6
			c-1,1.8-1.7,3.7-2.2,5.7l10.9,5.9l-4,7.3l-9.8-5.4c-0.9,1.8-1.9,3.4-3.5,4.6c-1.7,1.4-3.9,2.5-6.6,2.9l-0.1,0.1l21.1,11.5
			l-4.8,8.8L474.6,159.4z"/>
	</g>
</g>
</svg>
